<svg width="33" height="32" viewBox="0 0 33 32" fill="none" xmlns="http://www.w3.org/2000/svg">
<g filter="url(#filter0_d)">
<path fill-rule="evenodd" clip-rule="evenodd" d="M16.5 25C10.75 19.4996 5 13.9991 5 8.50044C5 5.46323 7.58002 3 10.75 3C13.6347 3 15.0682 4.37511 16.5 7.12533C17.9335 4.37511 19.3847 3 22.25 3C25.42 3 28 5.46323 28 8.50044C28 13.9991 22.25 19.4996 16.5 25Z" fill="white" fill-opacity="0.7"/>
<path fill-rule="evenodd" clip-rule="evenodd" d="M16.5 25C10.75 19.4996 5 13.9991 5 8.50044C5 5.46323 7.58002 3 10.75 3C13.6347 3 15.0682 4.37511 16.5 7.12533C17.9335 4.37511 19.3847 3 22.25 3C25.42 3 28 5.46323 28 8.50044C28 13.9991 22.25 19.4996 16.5 25Z" stroke="#4D4D4D" stroke-width="2" stroke-linecap="round" stroke-linejoin="round"/>
</g>
<defs>
<filter id="filter0_d" x="0" y="0" width="33" height="32" filterUnits="userSpaceOnUse" color-interpolation-filters="sRGB">
<feFlood flood-opacity="0" result="BackgroundImageFix"/>
<feColorMatrix in="SourceAlpha" type="matrix" values="0 0 0 0 0 0 0 0 0 0 0 0 0 0 0 0 0 0 127 0"/>
<feOffset dy="2"/>
<feGaussianBlur stdDeviation="2"/>
<feColorMatrix type="matrix" values="0 0 0 0 0 0 0 0 0 0 0 0 0 0 0 0 0 0 0.12 0"/>
<feBlend mode="normal" in2="BackgroundImageFix" result="effect1_dropShadow"/>
<feBlend mode="normal" in="SourceGraphic" in2="effect1_dropShadow" result="shape"/>
</filter>
</defs>
</svg>
